<svg width="18" height="18" viewBox="0 0 18 18" fill="none" xmlns="http://www.w3.org/2000/svg">
<path d="M6.75005 12.75V13.5C6.75005 14.0967 6.9871 14.669 7.40906 15.091C7.83101 15.5129 8.40331 15.75 9.00005 15.75C9.59679 15.75 10.1691 15.5129 10.591 15.091C11.013 14.669 11.25 14.0967 11.25 13.5V12.75M7.50005 3.75C7.50005 3.35218 7.65808 2.97064 7.93939 2.68934C8.22069 2.40804 8.60222 2.25 9.00005 2.25C9.39787 2.25 9.7794 2.40804 10.0607 2.68934C10.342 2.97064 10.5 3.35218 10.5 3.75C11.3614 4.15727 12.0956 4.79124 12.6241 5.58397C13.1526 6.3767 13.4557 8.0483 13.5003 9C13.545 9.95169 14.4003 12.75 14.4003 12.75H3.60034C3.60034 12.75 4.45532 9.95169 4.49999 9C4.54466 8.0483 4.84752 6.3767 5.37601 5.58397C5.9045 4.79124 6.63874 4.15727 7.50005 3.75Z" stroke="black" stroke-width="1.5" stroke-linecap="round" stroke-linejoin="round"/>
</svg>
