<svg width="20" height="20" viewBox="0 0 20 20" fill="none" xmlns="http://www.w3.org/2000/svg">
<path fill-rule="evenodd" clip-rule="evenodd" d="M7.48317 3.77778C7.48317 3.34822 7.12155 3 6.67548 3C6.2294 3 5.86779 3.34822 5.86779 3.77778V4.19949C5.603 4.25918 5.35224 4.34268 5.11129 4.4609C4.3514 4.83374 3.7336 5.42866 3.34642 6.16041C3.10266 6.62108 3.00105 7.119 2.95295 7.68588C2.90624 8.23645 2.90624 8.91635 2.90625 9.75928V11.2777C2.90624 12.1207 2.90624 12.8006 2.95295 13.3511C3.00105 13.918 3.10266 14.416 3.34642 14.8766C3.7336 15.6084 4.3514 16.2033 5.11129 16.5761C5.58968 16.8109 6.10675 16.9087 6.69544 16.955C7.26718 17 7.97322 17 8.84857 17L12.4923 17C12.8393 17 13.0756 17.0001 13.2839 16.9793C15.1851 16.7896 16.6878 15.3426 16.8847 13.5118C16.9063 13.3113 16.9063 13.0837 16.9062 12.7496L16.9062 9.75928C16.9062 8.91634 16.9063 8.23645 16.8595 7.68588C16.8114 7.119 16.7098 6.62108 16.4661 6.16041C16.0789 5.42866 15.4611 4.83374 14.7012 4.4609C14.4603 4.34268 14.2095 4.25917 13.9447 4.19949V3.77778C13.9447 3.34822 13.5831 3 13.137 3C12.6909 3 12.3293 3.34822 12.3293 3.77778V4.04594C11.9271 4.03703 11.4743 4.03703 10.9639 4.03704H8.8486C8.33821 4.03703 7.88538 4.03703 7.48317 4.04594V3.77778ZM5.84466 5.84691C6.05737 5.74254 6.33819 5.67085 6.82698 5.63239C7.3252 5.5932 7.96514 5.59259 8.88317 5.59259H10.9293C11.8474 5.59259 12.4873 5.5932 12.9855 5.63239C13.4743 5.67085 13.7551 5.74254 13.9678 5.84691C14.4238 6.07061 14.7945 6.42757 15.0268 6.86661C15.1351 7.07144 15.2096 7.34187 15.2495 7.81255C15.2654 7.99979 15.2752 8.20782 15.2812 8.44444H4.53128C4.5373 8.20782 4.54708 7.99979 4.56297 7.81255C4.6029 7.34187 4.67735 7.07144 4.78573 6.86661C5.01804 6.42757 5.38873 6.07061 5.84466 5.84691ZM4.52163 10V11.2444C4.52163 12.1285 4.52226 12.7447 4.56297 13.2245C4.6029 13.6952 4.67735 13.9656 4.78573 14.1704C5.01804 14.6095 5.38873 14.9664 5.84466 15.1901C6.05737 15.2945 6.33819 15.3662 6.82698 15.4046C7.3252 15.4438 7.96514 15.4444 8.88317 15.4444H12.4432C12.8577 15.4444 13.0034 15.4434 13.1175 15.432C14.2581 15.3182 15.1598 14.45 15.278 13.3515C15.2898 13.2417 15.2909 13.1014 15.2909 12.7022V10H4.52163Z" fill="#363738"/>
</svg>
