<svg width="20" height="20" viewBox="0 0 20 20" fill="none" xmlns="http://www.w3.org/2000/svg">
<path d="M4.67467 13.158C4.47023 13.0415 4.30018 12.873 4.18172 12.6697C4.06325 12.4663 4.00057 12.2353 4 12V5.33333C4 4.6 4.6 4 5.33333 4H12C12.5 4 12.772 4.25667 13 4.66667M6.66667 8.44467C6.66667 7.97311 6.85399 7.52087 7.18743 7.18743C7.52087 6.85399 7.97311 6.66667 8.44467 6.66667H14.222C14.4555 6.66667 14.6867 6.71266 14.9024 6.80201C15.1181 6.89136 15.3141 7.02233 15.4792 7.18743C15.6443 7.35253 15.7753 7.54854 15.8647 7.76426C15.954 7.97997 16 8.21118 16 8.44467V14.222C16 14.4555 15.954 14.6867 15.8647 14.9024C15.7753 15.1181 15.6443 15.3141 15.4792 15.4792C15.3141 15.6443 15.1181 15.7753 14.9024 15.8647C14.6867 15.954 14.4555 16 14.222 16H8.44467C8.21118 16 7.97997 15.954 7.76426 15.8647C7.54854 15.7753 7.35253 15.6443 7.18743 15.4792C7.02233 15.3141 6.89136 15.1181 6.80201 14.9024C6.71266 14.6867 6.66667 14.4555 6.66667 14.222V8.44467Z" stroke="#363738" stroke-width="1.5" stroke-linecap="round" stroke-linejoin="round"/>
</svg>
