<svg width="20" height="20" viewBox="0 0 20 20" fill="none" xmlns="http://www.w3.org/2000/svg">
<path d="M5.83301 5.83333H4.99967C4.55765 5.83333 4.13372 6.00893 3.82116 6.32149C3.5086 6.63405 3.33301 7.05797 3.33301 7.5V15C3.33301 15.442 3.5086 15.866 3.82116 16.1785C4.13372 16.4911 4.55765 16.6667 4.99967 16.6667H12.4997C12.9417 16.6667 13.3656 16.4911 13.6782 16.1785C13.9907 15.866 14.1663 15.442 14.1663 15V14.1667M13.333 4.16667L15.833 6.66667M16.9872 5.48759C17.3154 5.15938 17.4998 4.71424 17.4998 4.25009C17.4998 3.78594 17.3154 3.34079 16.9872 3.01259C16.659 2.68438 16.2138 2.5 15.7497 2.5C15.2855 2.5 14.8404 2.68438 14.5122 3.01259L7.49967 10.0001V12.5001H9.99967L16.9872 5.48759Z" stroke="#363738" stroke-width="1.5" stroke-linecap="round" stroke-linejoin="round"/>
</svg>
