<svg width="20" height="20" viewBox="0 0 20 20" fill="none" xmlns="http://www.w3.org/2000/svg">
<path d="M9.90623 14C9.49202 14 9.15624 13.6642 9.15625 13.25L9.15631 9.74999C9.15632 9.33577 9.49211 8.99999 9.90632 9C10.3205 9.00001 10.6563 9.3358 10.6563 9.75001L10.6562 13.25C10.6562 13.6642 10.3204 14 9.90623 14Z" fill="#363738"/>
<path d="M8.90625 7C8.90625 6.44772 9.35397 6 9.90625 6C10.4585 6 10.9063 6.44772 10.9063 7C10.9063 7.55228 10.4585 8 9.90625 8C9.35397 8 8.90625 7.55228 8.90625 7Z" fill="#363738"/>
<path fill-rule="evenodd" clip-rule="evenodd" d="M16.9062 10C16.9062 13.866 13.7722 17 9.90625 17C6.04026 17 2.90625 13.866 2.90625 10C2.90625 6.13401 6.04026 3 9.90625 3C13.7722 3 16.9062 6.13401 16.9062 10ZM15.4062 10C15.4062 13.0376 12.9438 15.5 9.90625 15.5C6.86868 15.5 4.40625 13.0376 4.40625 10C4.40625 6.96243 6.86868 4.5 9.90625 4.5C12.9438 4.5 15.4062 6.96243 15.4062 10Z" fill="#363738"/>
</svg>
