<svg width="20" height="20" viewBox="0 0 20 20" fill="none" xmlns="http://www.w3.org/2000/svg">
<path fill-rule="evenodd" clip-rule="evenodd" d="M12.539 15.0703C11.1349 15.1037 9.7416 14.817 8.46479 14.2318L8.1577 14.091C7.79065 13.9228 7.39966 13.8153 7 13.7719V8.5491C7.05159 8.51929 7.10156 8.48633 7.14961 8.45029C8.43643 7.48517 9.31813 6.07715 9.62537 4.50021C10.4506 4.5142 11.0897 5.23316 11.003 6.05745L10.8704 7.3168C10.7616 8.35007 11.5718 9.25 12.6108 9.25H14.2052C14.9635 9.25 15.5471 9.91965 15.4435 10.6708L15.1058 13.119C14.955 14.2122 14.0337 15.0347 12.9304 15.061L12.539 15.0703ZM5.5 8.75H4.5V13.75H5.5V8.75ZM7.83981 15.5954C9.32366 16.2755 10.9429 16.6087 12.5747 16.5699L12.9662 16.5605C14.8048 16.5168 16.3404 15.146 16.5917 13.324L16.9294 10.8758C17.1573 9.22324 15.8734 7.75 14.2052 7.75H12.6108C12.4624 7.75 12.3466 7.62144 12.3622 7.47383L12.4947 6.21448C12.6756 4.49638 11.3284 3 9.60085 3H9.23673C8.73718 3 8.30911 3.35725 8.21975 3.84874L8.16468 4.15165C7.93973 5.38883 7.25589 6.49543 6.25 7.25H4.25C3.55964 7.25 3 7.80964 3 8.5V14C3 14.6904 3.55964 15.25 4.25 15.25H6.59525C6.91882 15.25 7.23858 15.3198 7.53272 15.4546L7.83981 15.5954Z" fill="#363738"/>
</svg>
