<svg width="24" height="24" viewBox="0 0 24 24" fill="none" xmlns="http://www.w3.org/2000/svg">
<path fill-rule="evenodd" clip-rule="evenodd" d="M20 12C20 12.5232 19.5867 12.9474 19.0769 12.9474L7.15174 12.9474L10.4993 16.3827C10.8598 16.7527 10.8599 17.3525 10.4994 17.7225C10.1389 18.0925 9.55447 18.0925 9.19397 17.7226L4.2704 12.6699C4.09727 12.4923 4 12.2513 4 12C4 11.7487 4.09727 11.5077 4.2704 11.3301L9.19397 6.27744C9.55447 5.90749 10.1389 5.90752 10.4994 6.27751C10.8599 6.6475 10.8598 7.24734 10.4993 7.61729L7.15174 11.0526L19.0769 11.0526C19.5867 11.0526 20 11.4768 20 12Z" fill="#363738"/>
</svg>
