<svg width="20" height="20" viewBox="0 0 20 20" fill="none" xmlns="http://www.w3.org/2000/svg">
<path fill-rule="evenodd" clip-rule="evenodd" d="M9.97636 3.50007L10.0245 3.5003L10.0726 3.50044C10.2545 3.50085 10.4438 3.50129 10.6157 3.53617C11.3094 3.67688 11.85 4.22161 11.9855 4.91633C12.0191 5.08854 12.0181 5.27785 12.0171 5.45976L11.9827 14.5559C11.9822 14.7378 11.9818 14.9271 11.9469 15.0991C11.8062 15.7928 11.2615 16.3334 10.5668 16.4688C10.3945 16.5024 10.2052 16.5014 10.0233 16.5004L9.97523 16.5002L9.92712 16.5001C9.74521 16.4997 9.5559 16.4992 9.38395 16.4643C8.69027 16.3236 8.14966 15.7789 8.0142 15.0842C7.98062 14.912 7.98162 14.7227 7.98258 14.5407L7.98281 14.4926L8.0169 5.49271L8.01704 5.44461C8.01745 5.2627 8.01789 5.07339 8.05277 4.90144C8.19348 4.20776 8.73821 3.66714 9.43293 3.53169C9.60514 3.49811 9.79445 3.49911 9.97636 3.50007ZM9.71805 5.00435C9.62038 5.02419 9.54381 5.10018 9.52323 5.1977C9.52277 5.20132 9.5211 5.21623 9.51979 5.25062C9.51773 5.30496 9.51735 5.37714 9.51689 5.49839L9.4828 14.4983C9.48234 14.6196 9.48217 14.6918 9.48383 14.7461C9.48488 14.7805 9.48643 14.7955 9.48686 14.7991C9.50671 14.8967 9.5827 14.9733 9.68022 14.9939C9.68383 14.9943 9.69874 14.996 9.73313 14.9973C9.78748 14.9994 9.85966 14.9998 9.98091 15.0002C10.1022 15.0007 10.1743 15.0009 10.2287 14.9992C10.2631 14.9981 10.278 14.9966 10.2816 14.9962C10.3793 14.9763 10.4559 14.9003 10.4765 14.8028C10.4769 14.7992 10.4786 14.7843 10.4799 14.7499C10.482 14.6955 10.4823 14.6234 10.4828 14.5021L10.5169 5.50218C10.5173 5.38093 10.5175 5.30875 10.5159 5.25439C10.5148 5.21999 10.5133 5.20507 10.5128 5.20145C10.493 5.10378 10.417 5.02721 10.3195 5.00663C10.3159 5.00617 10.3009 5.0045 10.2666 5.00319C10.2122 5.00113 10.14 5.00075 10.0188 5.00029C9.89753 4.99983 9.82535 4.99966 9.77099 5.00132C9.73659 5.00236 9.72167 5.00392 9.71805 5.00435Z" fill="#363738"/>
<path fill-rule="evenodd" clip-rule="evenodd" d="M5.45556 8.98299L5.50366 8.98322L5.55177 8.98335C5.73368 8.98377 5.92299 8.9842 6.09494 9.01908C6.78862 9.1598 7.32923 9.70452 7.46469 10.3992C7.49827 10.5715 7.49727 10.7608 7.49631 10.9427L7.49608 10.9908L7.48282 14.4908L7.48268 14.5389C7.48227 14.7208 7.48183 14.9101 7.44695 15.082C7.30624 15.7757 6.76152 16.3163 6.06679 16.4518C5.89458 16.4854 5.70527 16.4844 5.52336 16.4834L5.47526 16.4832L5.42716 16.483C5.24524 16.4826 5.05593 16.4822 4.88398 16.4473C4.1903 16.3066 3.64969 15.7619 3.51423 15.0671C3.48066 14.8949 3.48166 14.7056 3.48262 14.5237L3.49624 10.9275C3.49665 10.7456 3.49709 10.5563 3.53197 10.3844C3.67268 9.69067 4.21741 9.15006 4.91213 9.0146C5.08434 8.98103 5.27365 8.98203 5.45556 8.98299ZM5.19725 10.4873C5.09958 10.5071 5.02301 10.5831 5.00243 10.6806C5.00197 10.6842 5.0003 10.6991 4.99899 10.7335C4.99693 10.7879 4.99655 10.8601 4.99609 10.9813L4.98284 14.4813C4.98238 14.6025 4.98221 14.6747 4.98386 14.7291C4.98491 14.7635 4.98646 14.7784 4.98689 14.782C5.00674 14.8797 5.08273 14.9563 5.18025 14.9768C5.18386 14.9773 5.19876 14.979 5.23317 14.9803C5.28751 14.9823 5.35969 14.9827 5.48094 14.9832C5.60219 14.9836 5.67437 14.9838 5.72873 14.9822C5.76314 14.9811 5.77805 14.9795 5.78167 14.9791C5.87934 14.9593 5.95591 14.8833 5.97649 14.7858C5.97695 14.7822 5.97862 14.7672 5.97993 14.7328C5.98199 14.6785 5.98237 14.6063 5.98283 14.4851L5.99609 10.9851C5.99654 10.8638 5.99672 10.7917 5.99506 10.7373C5.99401 10.7029 5.99246 10.688 5.99203 10.6844C5.97218 10.5867 5.89619 10.5101 5.79867 10.4895C5.79505 10.4891 5.78015 10.4874 5.74576 10.4861C5.69141 10.484 5.61923 10.4837 5.49798 10.4832C5.37673 10.4827 5.30455 10.4826 5.2502 10.4842C5.21579 10.4853 5.20088 10.4868 5.19725 10.4873Z" fill="#363738"/>
<path fill-rule="evenodd" clip-rule="evenodd" d="M14.515 6.01733L14.4669 6.0171C14.2849 6.01614 14.0956 6.01514 13.9234 6.04871C13.2287 6.18417 12.684 6.72478 12.5433 7.41846C12.5084 7.59042 12.508 7.77972 12.5075 7.96164L12.4826 14.5578C12.4816 14.7397 12.4806 14.929 12.5142 15.1012C12.6496 15.796 13.1902 16.3407 13.8839 16.4814C14.0559 16.5163 14.2452 16.5167 14.4271 16.5171L14.4752 16.5173L14.5233 16.5175C14.7052 16.5184 14.8945 16.5194 15.0667 16.4859C15.7615 16.3504 16.3062 15.8098 16.4469 15.1161C16.4818 14.9442 16.4822 14.7549 16.4826 14.5729L16.4828 14.5248L16.5074 8.02489L16.5076 7.97679C16.5086 7.79488 16.5096 7.60557 16.476 7.43336C16.3405 6.73863 15.7999 6.19391 15.1062 6.05319C14.9343 6.01831 14.745 6.01788 14.5631 6.01746L14.515 6.01733ZM14.0137 7.71473C14.0343 7.61721 14.1109 7.54122 14.2086 7.52138C14.2122 7.52095 14.2271 7.51939 14.2615 7.51834C14.3159 7.51669 14.388 7.51686 14.5093 7.51732C14.6305 7.51778 14.7027 7.51815 14.7571 7.52022C14.7914 7.52153 14.8064 7.5232 14.81 7.52365C14.9075 7.54424 14.9835 7.62081 15.0033 7.71848C15.0038 7.7221 15.0053 7.73702 15.0064 7.77142C15.008 7.82578 15.0078 7.89796 15.0074 8.01921L14.9828 14.5192C14.9823 14.6404 14.9819 14.7126 14.9799 14.7669C14.9786 14.8013 14.9769 14.8162 14.9764 14.8199C14.9558 14.9174 14.8793 14.9934 14.7816 15.0132C14.778 15.0136 14.7631 15.0152 14.7287 15.0162C14.6743 15.0179 14.6021 15.0177 14.4809 15.0173C14.3596 15.0168 14.2874 15.0164 14.2331 15.0144C14.1987 15.0131 14.1838 15.0114 14.1802 15.0109C14.0827 14.9903 14.0067 14.9138 13.9868 14.8161C13.9864 14.8125 13.9848 14.7976 13.9838 14.7632C13.9821 14.7088 13.9823 14.6366 13.9828 14.5154L14.0074 8.01542C14.0079 7.89417 14.0082 7.82199 14.0103 7.76765C14.0116 7.73326 14.0133 7.71835 14.0137 7.71473Z" fill="#363738"/>
</svg>
