<svg width="20" height="20" viewBox="0 0 20 20" fill="none" xmlns="http://www.w3.org/2000/svg">
<path fill-rule="evenodd" clip-rule="evenodd" d="M15.6553 4.34439C14.603 3.29209 12.8969 3.2921 11.8446 4.34442L11.2461 4.94293L11.2374 4.93418L10.1767 5.99484L10.1855 6.00361L4.30543 11.8839C3.78972 12.3996 3.5 13.099 3.5 13.8284V15.75C3.5 15.9489 3.57902 16.1396 3.71967 16.2803C3.86032 16.421 4.05109 16.5 4.25 16.5L6.17155 16.5C6.90091 16.5 7.6004 16.2102 8.11613 15.6945L15.6554 8.15501C16.7076 7.10273 16.7076 5.39667 15.6553 4.34439ZM11.2462 7.06427L5.3661 12.9445C5.13169 13.1789 5 13.4969 5 13.8284L5 15H6.17155C6.50308 15 6.82103 14.8683 7.05545 14.6338L12.9355 8.7536L11.2462 7.06427ZM13.9961 7.69293L14.5947 7.09437C15.0612 6.62787 15.0612 5.87154 14.5947 5.40505C14.1282 4.93855 13.3718 4.93855 12.9053 5.40506L12.3068 6.00359L13.9961 7.69293Z" fill="#363738"/>
</svg>
