<svg width="20" height="20" viewBox="0 0 20 20" fill="none" xmlns="http://www.w3.org/2000/svg">
<path d="M12.5 6.66667H12.5083M9.58333 17.5H5C4.33696 17.5 3.70107 17.2366 3.23223 16.7678C2.76339 16.2989 2.5 15.663 2.5 15V5C2.5 4.33696 2.76339 3.70107 3.23223 3.23223C3.70107 2.76339 4.33696 2.5 5 2.5H15C15.663 2.5 16.2989 2.76339 16.7678 3.23223C17.2366 3.70107 17.5 4.33696 17.5 5V9.58333M16.8335 16.8335L18.3335 18.3335M2.5 13.3332L6.66667 9.16652C7.44 8.42236 8.39333 8.42236 9.16667 9.16652L10.8333 10.8332M12.5 15C12.5 15.663 12.7634 16.2989 13.2322 16.7678C13.7011 17.2366 14.337 17.5 15 17.5C15.663 17.5 16.2989 17.2366 16.7678 16.7678C17.2366 16.2989 17.5 15.663 17.5 15C17.5 14.337 17.2366 13.7011 16.7678 13.2322C16.2989 12.7634 15.663 12.5 15 12.5C14.337 12.5 13.7011 12.7634 13.2322 13.2322C12.7634 13.7011 12.5 14.337 12.5 15Z" stroke="#363738" stroke-width="1.5" stroke-linecap="round" stroke-linejoin="round"/>
</svg>
