<svg
      width="18" height="18"
      viewBox="0 0 27 24"
      fill="none"
      xmlns="http://www.w3.org/2000/svg"
    >
      <path
        fill-rule="evenodd"
        clip-rule="evenodd"
        d="M22.9498 2.63243V6.91529C23.4817 6.91529 24.0084 7.01726 24.4998 7.21539C24.9912 7.41352 25.4376 7.70392 25.8137 8.07001C26.1898 8.43611 26.4882 8.87072 26.6917 9.34905C26.8952 9.82737 27 10.34 27 10.8578C27 11.3755 26.8952 11.8882 26.6917 12.3665C26.4882 12.8448 26.1898 13.2794 25.8137 13.6455C25.4376 14.0116 24.9912 14.302 24.4998 14.5002C24.0084 14.6983 23.4817 14.8003 22.9498 14.8003V18.7427C22.9498 20.9085 20.4104 22.1451 18.6297 20.8454L15.8486 18.8137C14.362 17.7287 12.631 17.0043 10.7993 16.7005V20.438C10.7995 21.2971 10.4806 22.1274 9.90143 22.7756C9.32226 23.4239 8.52188 23.8465 7.64781 23.9656C6.77374 24.0847 5.88491 23.8922 5.14516 23.4236C4.40542 22.955 3.86462 22.2419 3.62246 21.4158L1.50288 14.1931C0.740122 13.3163 0.243732 12.2498 0.0695079 11.1134C-0.104717 9.97702 0.05013 8.81588 0.516642 7.76047C0.983155 6.70507 1.74284 5.79725 2.7103 5.13906C3.67776 4.48087 4.81464 4.0984 5.99316 4.03464L10.0676 3.81386C12.0611 3.70588 13.9999 3.13882 15.7243 2.15933L18.8889 0.361558C20.6898 -0.659546 22.9498 0.603364 22.9498 2.63243ZM4.90501 16.2169L6.21862 20.6943C6.28183 20.911 6.42348 21.0981 6.61739 21.2211C6.8113 21.3441 7.04438 21.3947 7.27359 21.3635C7.5028 21.3322 7.71266 21.2213 7.86442 21.0512C8.01618 20.8811 8.09959 20.6633 8.09924 20.438V16.4824L5.99316 16.3681C5.62665 16.3483 5.26258 16.2977 4.90501 16.2169ZM20.2497 2.63243L17.0839 4.43152C15.1605 5.52285 13.0159 6.19287 10.7993 6.39488V14.042C13.2119 14.3653 15.5083 15.2812 17.4686 16.7111L20.2497 18.7427V2.63243ZM8.09924 6.55258L6.14166 6.65771C5.23098 6.70666 4.37223 7.08615 3.73494 7.72129C3.09765 8.35643 2.72812 9.20105 2.6993 10.0884C2.67048 10.9758 2.98446 11.8415 3.57926 12.5145C4.17406 13.1876 5.00646 13.6191 5.91215 13.724L6.14166 13.7437L8.09924 13.8488V6.55258ZM22.9498 9.54361V12.1719C23.2939 12.1716 23.6249 12.0433 23.8751 11.8134C24.1253 11.5834 24.2759 11.2692 24.2961 10.9348C24.3162 10.6004 24.2045 10.2712 23.9836 10.0143C23.7628 9.75744 23.4495 9.59237 23.1078 9.55281L22.9498 9.54361Z"
        fill="#525252"
      />
</svg>