<svg xmlns="http://www.w3.org/2000/svg" width="20" height="20" viewBox="0 0 20 20" fill="none">
  <path d="M4 6C4 6.79565 4.63214 7.55871 5.75736 8.12132C6.88258 8.68393 8.4087 9 10 9C11.5913 9 13.1174 8.68393 14.2426 8.12132C15.3679 7.55871 16 6.79565 16 6M4 6C4 5.20435 4.63214 4.44129 5.75736 3.87868C6.88258 3.31607 8.4087 3 10 3C11.5913 3 13.1174 3.31607 14.2426 3.87868C15.3679 4.44129 16 5.20435 16 6M4 6V10M16 6V10M4 10C4 11.657 6.6868 13 10 13C13.3132 13 16 11.657 16 10M4 10V14C4 15.657 6.6868 17 10 17C13.3132 17 16 15.657 16 14V10" stroke="#363738" stroke-width="1.5" stroke-linecap="round" stroke-linejoin="round"/>
</svg>