<svg width="24" height="24" viewBox="0 0 24 24" fill="none" xmlns="http://www.w3.org/2000/svg">
<path d="M12 17.7143C11.4082 17.7143 10.9286 17.2346 10.9286 16.6428L10.9287 11.6428C10.9287 11.0511 11.4084 10.5714 12.0001 10.5714C12.5918 10.5714 13.0715 11.0511 13.0715 11.6429L13.0714 16.6429C13.0714 17.2346 12.5917 17.7143 12 17.7143Z" fill="#363738"/>
<path d="M10.5714 7.71429C10.5714 6.92531 11.211 6.28571 12 6.28571C12.789 6.28571 13.4286 6.92531 13.4286 7.71429C13.4286 8.50326 12.789 9.14286 12 9.14286C11.211 9.14286 10.5714 8.50326 10.5714 7.71429Z" fill="#363738"/>
<path fill-rule="evenodd" clip-rule="evenodd" d="M22 12C22 17.5228 17.5228 22 12 22C6.47715 22 2 17.5228 2 12C2 6.47715 6.47715 2 12 2C17.5228 2 22 6.47715 22 12ZM19.8571 12C19.8571 16.3394 16.3394 19.8571 12 19.8571C7.66062 19.8571 4.14286 16.3394 4.14286 12C4.14286 7.66062 7.66062 4.14286 12 4.14286C16.3394 4.14286 19.8571 7.66062 19.8571 12Z" fill="#363738"/>
</svg>
