<svg width="20" height="20" viewBox="0 0 20 20" fill="none" xmlns="http://www.w3.org/2000/svg">
<path fill-rule="evenodd" clip-rule="evenodd" d="M3 6.75C3 4.67893 4.67893 3 6.75 3H12.25C14.3211 3 16 4.67893 16 6.75V12.25C16 14.3211 14.3211 16 12.25 16H6.75C4.67893 16 3 14.3211 3 12.25V6.75ZM6.75 4.5C5.50736 4.5 4.5 5.50736 4.5 6.75V7.25H14.5V6.75C14.5 5.50736 13.4926 4.5 12.25 4.5H6.75ZM10.5 8.75H4.5V12.25C4.5 13.4926 5.50736 14.5 6.75 14.5H10.5V8.75ZM12 14.5V8.75H14.5V12.25C14.5 13.4926 13.4926 14.5 12.25 14.5H12Z" fill="#363738"/>
</svg>
